<mxfile host="app.diagrams.net" modified="2020-11-27T06:21:30.880Z" agent="5.0 (Windows NT 6.1; Win64; x64) AppleWebKit/537.36 (KHTML, like Gecko) Chrome/86.0.4240.198 Safari/537.36" etag="44nRu604nsh1iZv8z7cw" version="13.10.3" type="github">
  <diagram id="C5RBs43oDa-KdzZeNtuy" name="Page-1">
    <mxGraphModel dx="868" dy="425" grid="1" gridSize="10" guides="1" tooltips="1" connect="1" arrows="1" fold="1" page="1" pageScale="1" pageWidth="1169" pageHeight="827" math="0" shadow="0">
      <root>
        <mxCell id="WIyWlLk6GJQsqaUBKTNV-0" />
        <mxCell id="WIyWlLk6GJQsqaUBKTNV-1" parent="WIyWlLk6GJQsqaUBKTNV-0" />
        <mxCell id="HwQRAM5Hewz8B1-rTOd3-0" style="edgeStyle=orthogonalEdgeStyle;rounded=0;orthogonalLoop=1;jettySize=auto;html=1;exitX=1;exitY=0.5;exitDx=0;exitDy=0;entryX=0;entryY=0.5;entryDx=0;entryDy=0;" parent="WIyWlLk6GJQsqaUBKTNV-1" edge="1">
          <mxGeometry relative="1" as="geometry">
            <mxPoint x="450" y="280" as="sourcePoint" />
            <mxPoint x="490" y="280" as="targetPoint" />
          </mxGeometry>
        </mxCell>
        <mxCell id="8N5LP31pCHcp6GWYZzcI-1" style="edgeStyle=orthogonalEdgeStyle;rounded=0;orthogonalLoop=1;jettySize=auto;html=1;exitX=1;exitY=0.5;exitDx=0;exitDy=0;entryX=0;entryY=0.5;entryDx=0;entryDy=0;" parent="WIyWlLk6GJQsqaUBKTNV-1" edge="1">
          <mxGeometry relative="1" as="geometry">
            <mxPoint x="610" y="280" as="sourcePoint" />
            <mxPoint x="650" y="280" as="targetPoint" />
          </mxGeometry>
        </mxCell>
        <mxCell id="8N5LP31pCHcp6GWYZzcI-0" style="edgeStyle=orthogonalEdgeStyle;rounded=0;orthogonalLoop=1;jettySize=auto;html=1;exitX=0.5;exitY=1;exitDx=0;exitDy=0;" parent="WIyWlLk6GJQsqaUBKTNV-1" edge="1">
          <mxGeometry relative="1" as="geometry">
            <mxPoint x="550" y="210" as="sourcePoint" />
            <mxPoint x="550" y="250" as="targetPoint" />
          </mxGeometry>
        </mxCell>
        <mxCell id="HwQRAM5Hewz8B1-rTOd3-6" style="edgeStyle=orthogonalEdgeStyle;rounded=0;orthogonalLoop=1;jettySize=auto;html=1;exitX=1;exitY=0.5;exitDx=0;exitDy=0;entryX=0;entryY=0.5;entryDx=0;entryDy=0;" parent="WIyWlLk6GJQsqaUBKTNV-1" target="HwQRAM5Hewz8B1-rTOd3-8" edge="1">
          <mxGeometry relative="1" as="geometry">
            <mxPoint x="770" y="280" as="sourcePoint" />
          </mxGeometry>
        </mxCell>
        <mxCell id="HwQRAM5Hewz8B1-rTOd3-8" value="&lt;b&gt;&lt;font style=&quot;font-size: 18px&quot;&gt;污染物组分&lt;br&gt;排放源清单&lt;/font&gt;&lt;/b&gt;" style="rounded=1;whiteSpace=wrap;html=1;fillColor=#FFCC99;" parent="WIyWlLk6GJQsqaUBKTNV-1" vertex="1">
          <mxGeometry x="810" y="250" width="120" height="60" as="geometry" />
        </mxCell>
        <mxCell id="BrOVG_drzzOI5yTI_0rT-0" value="&lt;font style=&quot;font-size: 18px&quot;&gt;&lt;b&gt;细化网格数据&lt;/b&gt;&lt;/font&gt;" style="rounded=1;whiteSpace=wrap;html=1;fontSize=12;glass=0;strokeWidth=1;shadow=0;fillColor=#FFCCCC;" vertex="1" parent="WIyWlLk6GJQsqaUBKTNV-1">
          <mxGeometry x="330" y="260" width="120" height="40" as="geometry" />
        </mxCell>
        <mxCell id="BrOVG_drzzOI5yTI_0rT-1" value="&lt;b&gt;&lt;font style=&quot;font-size: 18px&quot;&gt;归档细化&lt;br&gt;网格&lt;/font&gt;&lt;/b&gt;" style="shape=process;whiteSpace=wrap;html=1;backgroundOutline=1;fillColor=#FFCCCC;" vertex="1" parent="WIyWlLk6GJQsqaUBKTNV-1">
          <mxGeometry x="490" y="250" width="120" height="60" as="geometry" />
        </mxCell>
        <mxCell id="BrOVG_drzzOI5yTI_0rT-2" value="&lt;b&gt;&lt;font style=&quot;font-size: 18px&quot;&gt;网格化组分&lt;br&gt;排放量&lt;/font&gt;&lt;/b&gt;" style="rounded=1;whiteSpace=wrap;html=1;fillColor=#FFCCCC;" vertex="1" parent="WIyWlLk6GJQsqaUBKTNV-1">
          <mxGeometry x="650" y="250" width="120" height="60" as="geometry" />
        </mxCell>
        <mxCell id="BrOVG_drzzOI5yTI_0rT-6" style="edgeStyle=orthogonalEdgeStyle;rounded=0;orthogonalLoop=1;jettySize=auto;html=1;exitX=0.5;exitY=1;exitDx=0;exitDy=0;entryX=0.5;entryY=0;entryDx=0;entryDy=0;" edge="1" parent="WIyWlLk6GJQsqaUBKTNV-1" source="BrOVG_drzzOI5yTI_0rT-3" target="BrOVG_drzzOI5yTI_0rT-4">
          <mxGeometry relative="1" as="geometry" />
        </mxCell>
        <mxCell id="BrOVG_drzzOI5yTI_0rT-3" value="&lt;b&gt;&lt;font style=&quot;font-size: 18px&quot;&gt;个体单位的&lt;br&gt;基础数据&lt;/font&gt;&lt;/b&gt;" style="rounded=1;whiteSpace=wrap;html=1;fillColor=#CCFFFF;" vertex="1" parent="WIyWlLk6GJQsqaUBKTNV-1">
          <mxGeometry x="490" y="50" width="120" height="60" as="geometry" />
        </mxCell>
        <mxCell id="BrOVG_drzzOI5yTI_0rT-4" value="&lt;b&gt;&lt;font style=&quot;font-size: 18px&quot;&gt;计算个体单位的排放量&lt;/font&gt;&lt;/b&gt;" style="shape=process;whiteSpace=wrap;html=1;backgroundOutline=1;fillColor=#CCFFFF;" vertex="1" parent="WIyWlLk6GJQsqaUBKTNV-1">
          <mxGeometry x="490" y="150" width="120" height="60" as="geometry" />
        </mxCell>
        <mxCell id="BrOVG_drzzOI5yTI_0rT-10" style="edgeStyle=orthogonalEdgeStyle;rounded=0;orthogonalLoop=1;jettySize=auto;html=1;exitX=1;exitY=0.5;exitDx=0;exitDy=0;entryX=0;entryY=0.5;entryDx=0;entryDy=0;" edge="1" parent="WIyWlLk6GJQsqaUBKTNV-1" source="BrOVG_drzzOI5yTI_0rT-7" target="BrOVG_drzzOI5yTI_0rT-0">
          <mxGeometry relative="1" as="geometry" />
        </mxCell>
        <mxCell id="BrOVG_drzzOI5yTI_0rT-7" value="&lt;font style=&quot;font-size: 18px&quot;&gt;&lt;b&gt;制作细化网格&lt;/b&gt;&lt;/font&gt;" style="shape=process;whiteSpace=wrap;html=1;backgroundOutline=1;fillColor=#FFCCCC;" vertex="1" parent="WIyWlLk6GJQsqaUBKTNV-1">
          <mxGeometry x="170" y="250" width="120" height="60" as="geometry" />
        </mxCell>
        <mxCell id="BrOVG_drzzOI5yTI_0rT-8" style="edgeStyle=orthogonalEdgeStyle;rounded=0;orthogonalLoop=1;jettySize=auto;html=1;exitX=0.5;exitY=1;exitDx=0;exitDy=0;entryX=0.5;entryY=0;entryDx=0;entryDy=0;" edge="1" parent="WIyWlLk6GJQsqaUBKTNV-1" source="BrOVG_drzzOI5yTI_0rT-9" target="BrOVG_drzzOI5yTI_0rT-7">
          <mxGeometry relative="1" as="geometry" />
        </mxCell>
        <mxCell id="BrOVG_drzzOI5yTI_0rT-9" value="&lt;font style=&quot;font-size: 18px&quot;&gt;&lt;b&gt;空间地图数据&lt;/b&gt;&lt;/font&gt;" style="rounded=1;whiteSpace=wrap;html=1;fontSize=12;glass=0;strokeWidth=1;shadow=0;fillColor=#FFCCCC;" vertex="1" parent="WIyWlLk6GJQsqaUBKTNV-1">
          <mxGeometry x="170" y="170" width="120" height="40" as="geometry" />
        </mxCell>
      </root>
    </mxGraphModel>
  </diagram>
</mxfile>
